<svg width="20" height="20" viewBox="0 0 20 20" fill="none" xmlns="http://www.w3.org/2000/svg">
<g clip-path="url(#clip0_243_18490)">
<path d="M20 7.5C20.0019 7.04123 19.8775 6.59079 19.6405 6.198C19.4035 5.80521 19.0629 5.48521 18.6562 5.27305C18.2494 5.06089 17.7921 4.96474 17.3343 4.99515C16.8766 5.02555 16.436 5.18133 16.0609 5.44542C15.6858 5.70951 15.3905 6.07174 15.2075 6.49243C15.0245 6.91312 14.9608 7.37605 15.0234 7.83054C15.0859 8.28502 15.2723 8.71353 15.5622 9.06914C15.852 9.42474 16.2341 9.69374 16.6667 9.84667V13.3333C16.6667 14.6594 16.1399 15.9312 15.2022 16.8689C14.2645 17.8065 12.9928 18.3333 11.6667 18.3333C10.3406 18.3333 9.06882 17.8065 8.13113 16.8689C7.19345 15.9312 6.66667 14.6594 6.66667 13.3333V13.2667C8.0534 13.0655 9.32151 12.3722 10.2395 11.3135C11.1574 10.2548 11.664 8.90125 11.6667 7.5V2.5C11.6667 1.83696 11.4033 1.20107 10.9344 0.732233C10.4656 0.263392 9.82971 0 9.16667 0L6.66667 0V1.66667H9.16667C9.38768 1.66667 9.59964 1.75446 9.75592 1.91074C9.9122 2.06702 10 2.27899 10 2.5V7.5C10 8.60507 9.56101 9.66488 8.77961 10.4463C7.99821 11.2277 6.9384 11.6667 5.83333 11.6667C4.72827 11.6667 3.66846 11.2277 2.88706 10.4463C2.10565 9.66488 1.66667 8.60507 1.66667 7.5V2.5C1.66667 2.27899 1.75446 2.06702 1.91074 1.91074C2.06702 1.75446 2.27899 1.66667 2.5 1.66667H5V0H2.5C1.83696 0 1.20107 0.263392 0.732233 0.732233C0.263392 1.20107 0 1.83696 0 2.5L0 7.5C0.00267996 8.90125 0.509243 10.2548 1.4272 11.3135C2.34516 12.3722 3.61327 13.0655 5 13.2667V13.3333C5 15.1014 5.70238 16.7971 6.95262 18.0474C8.20286 19.2976 9.89856 20 11.6667 20C13.4348 20 15.1305 19.2976 16.3807 18.0474C17.631 16.7971 18.3333 15.1014 18.3333 13.3333V9.84667C18.8191 9.67493 19.2399 9.35731 19.5383 8.93725C19.8366 8.51719 19.9979 8.01522 20 7.5ZM17.5 8.33333C17.3352 8.33333 17.1741 8.28446 17.037 8.19289C16.9 8.10132 16.7932 7.97117 16.7301 7.8189C16.667 7.66663 16.6505 7.49908 16.6827 7.33742C16.7148 7.17577 16.7942 7.02729 16.9107 6.91074C17.0273 6.7942 17.1758 6.71483 17.3374 6.68268C17.4991 6.65052 17.6666 6.66703 17.8189 6.7301C17.9712 6.79317 18.1013 6.89998 18.1929 7.03702C18.2845 7.17407 18.3333 7.33518 18.3333 7.5C18.3333 7.72101 18.2455 7.93297 18.0893 8.08926C17.933 8.24554 17.721 8.33333 17.5 8.33333Z" fill="#F36A1D"/>
</g>
<defs>
<clipPath id="clip0_243_18490">
<rect width="20" height="20" fill="white"/>
</clipPath>
</defs>
</svg>
