<svg width="16" height="20" viewBox="0 0 16 20" fill="none" xmlns="http://www.w3.org/2000/svg">
<path d="M14.5233 2.84477L12.655 0.976434C12.3461 0.665858 11.9787 0.419622 11.5741 0.251978C11.1694 0.0843332 10.7355 -0.00139053 10.2975 -0.000232564H3C2.33696 -0.000232564 1.70107 0.26316 1.23223 0.732001C0.763392 1.20084 0.5 1.83673 0.5 2.49977V19.9998H15.5V5.20143C15.4978 4.31785 15.1468 3.47088 14.5233 2.84477ZM13.345 4.0231C13.3869 4.06857 13.4261 4.11643 13.4625 4.16643H11.3333V2.03727C11.3833 2.07364 11.4312 2.11287 11.4767 2.15477L13.345 4.0231ZM2.16667 18.3331V2.49977C2.16667 2.27875 2.25446 2.06679 2.41074 1.91051C2.56702 1.75423 2.77899 1.66643 3 1.66643H9.66667V5.8331H13.8333V18.3331H2.16667ZM3.83333 13.3331H12.1667V8.3331H3.83333V13.3331ZM5.5 9.99977H10.5V11.6664H5.5V9.99977ZM3.83333 14.9998H12.1667V16.6664H3.83333V14.9998Z" fill="#F36A1D"/>
</svg>
