<svg width="18" height="18" viewBox="0 0 18 18" fill="none" xmlns="http://www.w3.org/2000/svg">
<path d="M1.28775 11.025L4.3875 18H6.2295C6.57317 17.9998 6.91135 17.9138 7.21336 17.7498C7.51536 17.5858 7.77163 17.3489 7.95892 17.0608C8.1462 16.7726 8.25857 16.4423 8.28583 16.0997C8.31308 15.7571 8.25436 15.4131 8.115 15.099L6.40425 11.25H8.25C9.2442 11.2512 10.1973 11.6467 10.9003 12.3497C11.6033 13.0527 11.9988 14.0058 12 15H13.5V0H12C11.9988 0.994196 11.6033 1.94733 10.9003 2.65034C10.1973 3.35334 9.2442 3.74881 8.25 3.75H2.25C1.65326 3.75 1.08097 3.98705 0.65901 4.40901C0.237053 4.83097 0 5.40326 0 6L0 9C0.00167324 9.42466 0.12349 9.84017 0.351368 10.1985C0.579246 10.5569 0.903882 10.8434 1.28775 11.025ZM6.744 15.7073C6.78227 15.793 6.79848 15.887 6.79116 15.9806C6.78384 16.0743 6.75323 16.1646 6.70209 16.2434C6.65096 16.3222 6.58094 16.3869 6.4984 16.4317C6.41586 16.4766 6.32342 16.5 6.2295 16.5H5.3625L3.02925 11.25H4.7625L6.744 15.7073ZM1.5 6C1.5 5.80109 1.57902 5.61032 1.71967 5.46967C1.86032 5.32902 2.05109 5.25 2.25 5.25H8.25C8.94916 5.25016 9.64125 5.11013 10.2854 4.83819C10.9295 4.56625 11.5125 4.16792 12 3.66675V11.3333C11.5125 10.8321 10.9295 10.4337 10.2854 10.1618C9.64125 9.88986 8.94916 9.74984 8.25 9.75H2.25C2.05109 9.75 1.86032 9.67098 1.71967 9.53033C1.57902 9.38968 1.5 9.19891 1.5 9V6ZM16.7197 11.7802L15.0037 10.0642L16.0643 9.00375L17.7803 10.7198L16.7197 11.7802ZM16.0928 5.96775L15.0322 4.90725L16.7197 3.21975L17.7803 4.28025L16.0928 5.96775ZM15.75 6.75H18V8.25H15.75V6.75Z" fill="#FEF9EF"/>
</svg>
