<svg width="20" height="20" viewBox="0 0 20 20" fill="none" xmlns="http://www.w3.org/2000/svg">
<g clip-path="url(#clip0_243_18485)">
<path d="M5.57602 11.6983L0.841016 14.4925L-0.000651062 13.0517L3.28435 11.1392C3.14334 10.7716 3.04329 10.3895 2.98602 10H-0.833984V8.33333H2.98685C3.04717 7.94238 3.15029 7.55925 3.29435 7.19083L-0.000651062 5.27167L0.832682 3.83333L4.13352 5.75C4.37317 5.45701 4.64237 5.18949 4.93685 4.95167L3.02018 1.65917L4.46185 0.821667L6.37852 4.12C6.7403 3.98033 7.11608 3.88003 7.49935 3.82083V0H9.16602V3.82167C9.55318 3.87907 9.93293 3.97854 10.2985 4.11833L12.2152 0.8225L13.656 1.65583L11.7352 4.96333C12.0283 5.19946 12.2961 5.46532 12.5343 5.75667L15.8427 3.83333L16.681 5.27417L13.3685 7.2C13.4688 7.44696 13.5507 7.70098 13.6135 7.96C13.0033 7.71266 12.3578 7.56305 11.701 7.51667C11.3913 6.88728 10.9118 6.35708 10.3165 5.98597C9.7213 5.61487 9.03413 5.41767 8.33268 5.41667C7.62598 5.41773 6.93397 5.61847 6.3364 5.99574C5.73883 6.37301 5.26003 6.91146 4.95518 7.54903C4.65033 8.1866 4.53185 8.89733 4.61338 9.59931C4.69492 10.3013 4.97315 10.9659 5.41602 11.5167L5.57602 11.6983ZM19.166 15.8333C19.1647 16.938 18.7253 17.997 17.9442 18.7782C17.1631 19.5593 16.104 19.9987 14.9993 20H7.49935C6.68668 20.0005 5.90181 19.7042 5.29231 19.1667C4.68281 18.6291 4.29067 17.8875 4.18964 17.0811C4.0886 16.2747 4.28562 15.4592 4.74365 14.7879C5.20168 14.1167 5.88917 13.6358 6.67685 13.4358C6.74405 12.433 7.13903 11.48 7.80099 10.7237C8.46294 9.96736 9.35516 9.44959 10.3403 9.2501C11.3254 9.05062 12.3487 9.18048 13.2528 9.6197C14.1568 10.0589 14.8915 10.7831 15.3435 11.6808C16.385 11.7683 17.3557 12.2436 18.0636 13.0125C18.7715 13.7815 19.1649 14.7882 19.166 15.8333ZM17.4993 15.8333C17.4993 15.1703 17.236 14.5344 16.7671 14.0656C16.2983 13.5967 15.6624 13.3333 14.9993 13.3333H14.1968L14.001 12.7775C13.7726 12.1275 13.3214 11.5794 12.7275 11.2302C12.1335 10.8811 11.4352 10.7534 10.7561 10.8699C10.0771 10.9864 9.46122 11.3395 9.01764 11.8667C8.57405 12.3939 8.3314 13.061 8.33268 13.75C8.33268 13.8608 8.33935 13.97 8.35018 14.0783L8.45018 15H7.52185C7.30298 14.9985 7.08596 15.0402 6.88319 15.1226C6.68041 15.205 6.49585 15.3265 6.34004 15.4802C6.18423 15.6339 6.06023 15.8168 5.9751 16.0185C5.88998 16.2201 5.84541 16.4365 5.84393 16.6554C5.84245 16.8743 5.8841 17.0913 5.96649 17.2941C6.04889 17.4969 6.17041 17.6814 6.32413 17.8372C6.47785 17.993 6.66076 18.117 6.8624 18.2022C7.06404 18.2873 7.28048 18.3319 7.49935 18.3333H14.9993C15.6624 18.3333 16.2983 18.0699 16.7671 17.6011C17.236 17.1323 17.4993 16.4964 17.4993 15.8333Z" fill="#F36A1D"/>
</g>
<defs>
<clipPath id="clip0_243_18485">
<rect width="20" height="20" fill="white"/>
</clipPath>
</defs>
</svg>
