<svg width="36" height="36" viewBox="0 0 36 36" fill="none" xmlns="http://www.w3.org/2000/svg">
<g clip-path="url(#clip0_211_33427)">
<path d="M21.3003 24.3915C16.9329 22.5423 13.4599 19.0612 11.6208 14.6895L16.7208 9.5805L7.33079 0.183L2.57429 4.938C1.74929 5.76772 1.09701 6.75279 0.655192 7.83623C0.21337 8.91967 -0.00922232 10.08 0.000292652 11.25C0.000292652 22.122 13.8783 36 24.7503 36C25.9202 36.0102 27.0805 35.788 28.1638 35.3461C29.2471 34.9042 30.2318 34.2516 31.0608 33.426L35.8173 28.6695L26.4198 19.272L21.3003 24.3915ZM28.9383 31.305C28.3874 31.8511 27.7335 32.2821 27.0145 32.5731C26.2955 32.8641 25.5259 33.0092 24.7503 33C15.4008 33 3.00029 20.5995 3.00029 11.25C2.99146 10.4742 3.13674 9.70446 3.4277 8.98529C3.71867 8.26612 4.14953 7.61187 4.69529 7.0605L7.33079 4.425L12.4863 9.5805L8.08379 13.983L8.45129 14.904C9.53316 17.798 11.2244 20.4256 13.4105 22.6088C15.5966 24.7921 18.2264 26.4799 21.1218 27.558L22.0308 27.9045L26.4198 23.514L31.5753 28.6695L28.9383 31.305ZM21.0003 3V0C24.9772 0.0043674 28.79 1.58612 31.6021 4.39822C34.4142 7.21032 35.9959 11.0231 36.0003 15H33.0003C32.9967 11.8185 31.7313 8.76833 29.4816 6.51867C27.232 4.269 24.1818 3.00357 21.0003 3ZM21.0003 9V6C23.3865 6.00238 25.6743 6.95136 27.3616 8.63867C29.0489 10.326 29.9979 12.6138 30.0003 15H27.0003C27.0003 13.4087 26.3682 11.8826 25.2429 10.7574C24.1177 9.63214 22.5916 9 21.0003 9Z" fill="#F36A1D"/>
</g>
<defs>
<clipPath id="clip0_211_33427">
<rect width="36" height="36" fill="white"/>
</clipPath>
</defs>
</svg>
