<svg width="36" height="36" viewBox="0 0 36 36" fill="none" xmlns="http://www.w3.org/2000/svg">
<g clip-path="url(#clip0_211_33419)">
<path d="M16.4999 35.955C12.1358 35.955 7.95039 34.2214 4.86448 31.1355C1.77857 28.0496 0.0449219 23.8642 0.0449219 19.5C0.0449219 15.1359 1.77857 10.9505 4.86448 7.8646C7.95039 4.77869 12.1358 3.04504 16.4999 3.04504H17.9999L18.0194 4.54504L17.9999 18H32.9549V19.5C32.9502 23.8627 31.215 28.0453 28.1301 31.1302C25.0452 34.2151 20.8626 35.9503 16.4999 35.955ZM15.0179 6.12754C12.4994 6.4069 10.1109 7.39179 8.12745 8.96883C6.14401 10.5459 4.64621 12.651 3.80649 15.0418C2.96677 17.4326 2.81926 20.0119 3.38093 22.4829C3.94261 24.9539 5.19064 27.216 6.98136 29.0089C8.77208 30.8018 11.0327 32.0525 13.503 32.6172C15.9733 33.1819 18.5528 33.0375 20.9446 32.2007C23.3364 31.3638 25.4433 29.8686 27.0228 27.8871C28.6022 25.9055 29.59 23.5183 29.8724 21H14.9999L15.0179 6.12754Z" fill="#F36A1D"/>
<path d="M24.0273 3.43233C26.0878 3.97139 27.9677 5.04911 29.4739 6.55484C30.9802 8.06058 32.0586 9.94007 32.5983 12.0003H24.0273V3.43233ZM21.0273 0.0513306V15.0003H35.9793C35.96 11.041 34.3784 7.24948 31.5785 4.45009C28.7785 1.6507 24.9866 0.0698644 21.0273 0.0513306Z" fill="#F36A1D"/>
</g>
<defs>
<clipPath id="clip0_211_33419">
<rect width="36" height="36" fill="white"/>
</clipPath>
</defs>
</svg>
