<svg width="18" height="18" viewBox="0 0 18 18" fill="none" xmlns="http://www.w3.org/2000/svg">
<path d="M7.5 2.7855L3 10.5H12L7.5 2.7855ZM8.25 9.75H6.75V8.25H8.25V9.75ZM6.75 7.5V5.25H8.25V7.5H6.75ZM17.979 16.9185L13.3043 12.2438C14.3632 10.95 15.0007 9.2985 15.0007 7.50075C15 3.3645 11.6355 0 7.5 0C3.3645 0 0 3.3645 0 7.5C0 11.6355 3.3645 15 7.5 15C9.2985 15 10.95 14.3625 12.243 13.3035L16.9177 17.9783L17.9783 16.9177L17.979 16.9185ZM1.5 7.5C1.5 4.19175 4.19175 1.5 7.5 1.5C10.8082 1.5 13.5 4.19175 13.5 7.5C13.5 10.8082 10.8082 13.5 7.5 13.5C4.19175 13.5 1.5 10.8082 1.5 7.5Z" fill="#FEF9EF"/>
</svg>
