<svg width="81" height="82" viewBox="0 0 81 82" fill="none" xmlns="http://www.w3.org/2000/svg">
<g filter="url(#filter0_d_243_18505)">
<path d="M6 38.5C6 20.5507 20.5507 6 38.5 6C56.4493 6 71 20.5507 71 38.5V39.5C71 57.4493 56.4493 72 38.5 72C20.5507 72 6 57.4493 6 39.5V38.5Z" fill="#F4F3F1"/>
<path d="M6.5 38.5C6.5 20.8269 20.8269 6.5 38.5 6.5C56.1731 6.5 70.5 20.8269 70.5 38.5V39.5C70.5 57.1731 56.1731 71.5 38.5 71.5C20.8269 71.5 6.5 57.1731 6.5 39.5V38.5Z" stroke="#E35131"/>
<path d="M10 38.5C10 22.7599 22.7599 10 38.5 10C54.2401 10 67 22.7599 67 38.5V39.5C67 55.2401 54.2401 68 38.5 68C22.7599 68 10 55.2401 10 39.5V38.5Z" fill="#C4432C"/>
<g clip-path="url(#clip0_243_18505)">
<path d="M38.5022 37.9996C36.3812 37.9972 34.3478 37.1536 32.848 35.6538C31.3482 34.154 30.5046 32.1206 30.5022 29.9996C30.8782 19.4116 46.1282 19.4146 46.5022 29.9996C46.4998 32.1206 45.6562 34.154 44.1564 35.6538C42.6567 37.1536 40.6232 37.9972 38.5022 37.9996ZM38.5022 23.9996C30.5732 24.2516 30.5742 35.7486 38.5022 35.9996C46.4312 35.7476 46.4302 24.2506 38.5022 23.9996ZM39.5022 25.9996H37.5022V30.9996H39.5022V25.9996ZM39.5022 31.9996H37.5022V33.9996H39.5022V31.9996ZM50.5022 29.9996C50.5003 27.213 49.5307 24.5136 47.7592 22.3626L46.2162 23.6366C47.6844 25.4321 48.4865 27.6802 48.4865 29.9996C48.4865 32.319 47.6844 34.567 46.2162 36.3626L47.7592 37.6366C49.5307 35.4856 50.5003 32.7861 50.5022 29.9996ZM30.7882 36.3626C29.32 34.567 28.5179 32.319 28.5179 29.9996C28.5179 27.6802 29.32 25.4321 30.7882 23.6366L29.2462 22.3626C27.4841 24.5177 26.5215 27.2158 26.5215 29.9996C26.5215 32.7833 27.4841 35.4815 29.2462 37.6366L30.7882 36.3626Z" fill="#F9F8F7"/>
</g>
<path d="M31.7188 48.5653C31.6733 48.1619 31.4858 47.8494 31.1562 47.6278C30.8267 47.4034 30.4119 47.2912 29.9119 47.2912C29.554 47.2912 29.2443 47.348 28.983 47.4616C28.7216 47.5724 28.5185 47.7259 28.3736 47.9219C28.2315 48.1151 28.1605 48.3352 28.1605 48.5824C28.1605 48.7898 28.2088 48.9687 28.3054 49.1193C28.4048 49.2699 28.5341 49.3963 28.6932 49.4986C28.8551 49.598 29.0284 49.6818 29.2131 49.75C29.3977 49.8153 29.5753 49.8693 29.7457 49.9119L30.598 50.1335C30.8764 50.2017 31.1619 50.294 31.4545 50.4105C31.7472 50.527 32.0185 50.6804 32.2685 50.8707C32.5185 51.0611 32.7202 51.2969 32.8736 51.5781C33.0298 51.8594 33.108 52.196 33.108 52.5881C33.108 53.0824 32.9801 53.5213 32.7244 53.9048C32.4716 54.2884 32.1037 54.5909 31.6207 54.8125C31.1406 55.0341 30.5597 55.1449 29.8778 55.1449C29.2244 55.1449 28.6591 55.0412 28.1818 54.8338C27.7045 54.6264 27.331 54.3324 27.0611 53.9517C26.7912 53.5682 26.642 53.1136 26.6136 52.5881H27.9347C27.9602 52.9034 28.0625 53.1662 28.2415 53.3764C28.4233 53.5838 28.6548 53.7386 28.9361 53.8409C29.2202 53.9403 29.5312 53.9901 29.8693 53.9901C30.2415 53.9901 30.5724 53.9318 30.8622 53.8153C31.1548 53.696 31.3849 53.5312 31.5526 53.321C31.7202 53.108 31.804 52.8594 31.804 52.5753C31.804 52.3168 31.7301 52.1051 31.5824 51.9403C31.4375 51.7756 31.2401 51.6392 30.9901 51.5312C30.7429 51.4233 30.4631 51.3281 30.1506 51.2457L29.1193 50.9645C28.4205 50.7741 27.8665 50.4943 27.4574 50.125C27.0511 49.7557 26.848 49.267 26.848 48.6591C26.848 48.1562 26.9844 47.7173 27.2571 47.3423C27.5298 46.9673 27.8991 46.6761 28.3651 46.4688C28.831 46.2585 29.3565 46.1534 29.9418 46.1534C30.5327 46.1534 31.054 46.2571 31.5057 46.4645C31.9602 46.6719 32.3182 46.9574 32.5795 47.321C32.8409 47.6818 32.9773 48.0966 32.9886 48.5653H31.7188ZM42.2624 50.6364C42.2624 51.5682 42.092 52.3693 41.7511 53.0398C41.4102 53.7074 40.9428 54.2216 40.3491 54.5824C39.7582 54.9403 39.0863 55.1193 38.3335 55.1193C37.5778 55.1193 36.9031 54.9403 36.3093 54.5824C35.7184 54.2216 35.2525 53.706 34.9116 53.0355C34.5707 52.3651 34.4002 51.5653 34.4002 50.6364C34.4002 49.7045 34.5707 48.9048 34.9116 48.2372C35.2525 47.5668 35.7184 47.0526 36.3093 46.6946C36.9031 46.3338 37.5778 46.1534 38.3335 46.1534C39.0863 46.1534 39.7582 46.3338 40.3491 46.6946C40.9428 47.0526 41.4102 47.5668 41.7511 48.2372C42.092 48.9048 42.2624 49.7045 42.2624 50.6364ZM40.9585 50.6364C40.9585 49.9261 40.8434 49.3281 40.6133 48.8423C40.386 48.3537 40.0735 47.9844 39.6758 47.7344C39.2809 47.4815 38.8335 47.3551 38.3335 47.3551C37.8306 47.3551 37.3817 47.4815 36.9869 47.7344C36.592 47.9844 36.2795 48.3537 36.0494 48.8423C35.8221 49.3281 35.7085 49.9261 35.7085 50.6364C35.7085 51.3466 35.8221 51.946 36.0494 52.4347C36.2795 52.9205 36.592 53.2898 36.9869 53.5426C37.3817 53.7926 37.8306 53.9176 38.3335 53.9176C38.8335 53.9176 39.2809 53.7926 39.6758 53.5426C40.0735 53.2898 40.386 52.9205 40.6133 52.4347C40.8434 51.946 40.9585 51.3466 40.9585 50.6364ZM48.6641 48.5653C48.6186 48.1619 48.4311 47.8494 48.1016 47.6278C47.772 47.4034 47.3572 47.2912 46.8572 47.2912C46.4993 47.2912 46.1896 47.348 45.9283 47.4616C45.6669 47.5724 45.4638 47.7259 45.3189 47.9219C45.1768 48.1151 45.1058 48.3352 45.1058 48.5824C45.1058 48.7898 45.1541 48.9687 45.2507 49.1193C45.3501 49.2699 45.4794 49.3963 45.6385 49.4986C45.8004 49.598 45.9737 49.6818 46.1584 49.75C46.343 49.8153 46.5206 49.8693 46.6911 49.9119L47.5433 50.1335C47.8217 50.2017 48.1072 50.294 48.3999 50.4105C48.6925 50.527 48.9638 50.6804 49.2138 50.8707C49.4638 51.0611 49.6655 51.2969 49.8189 51.5781C49.9751 51.8594 50.0533 52.196 50.0533 52.5881C50.0533 53.0824 49.9254 53.5213 49.6697 53.9048C49.4169 54.2884 49.049 54.5909 48.5661 54.8125C48.0859 55.0341 47.505 55.1449 46.8232 55.1449C46.1697 55.1449 45.6044 55.0412 45.1271 54.8338C44.6499 54.6264 44.2763 54.3324 44.0064 53.9517C43.7365 53.5682 43.5874 53.1136 43.5589 52.5881H44.88C44.9055 52.9034 45.0078 53.1662 45.1868 53.3764C45.3686 53.5838 45.6001 53.7386 45.8814 53.8409C46.1655 53.9403 46.4766 53.9901 46.8146 53.9901C47.1868 53.9901 47.5178 53.9318 47.8075 53.8153C48.1001 53.696 48.3303 53.5312 48.4979 53.321C48.6655 53.108 48.7493 52.8594 48.7493 52.5753C48.7493 52.3168 48.6754 52.1051 48.5277 51.9403C48.3828 51.7756 48.1854 51.6392 47.9354 51.5312C47.6882 51.4233 47.4084 51.3281 47.0959 51.2457L46.0646 50.9645C45.3658 50.7741 44.8118 50.4943 44.4027 50.125C43.9964 49.7557 43.7933 49.267 43.7933 48.6591C43.7933 48.1562 43.9297 47.7173 44.2024 47.3423C44.4751 46.9673 44.8445 46.6761 45.3104 46.4688C45.7763 46.2585 46.3018 46.1534 46.8871 46.1534C47.478 46.1534 47.9993 46.2571 48.451 46.4645C48.9055 46.6719 49.2635 46.9574 49.5249 47.321C49.7862 47.6818 49.9226 48.0966 49.9339 48.5653H48.6641Z" fill="#F9F8F7"/>
</g>
<defs>
<filter id="filter0_d_243_18505" x="0" y="0" width="81" height="82" filterUnits="userSpaceOnUse" color-interpolation-filters="sRGB">
<feFlood flood-opacity="0" result="BackgroundImageFix"/>
<feColorMatrix in="SourceAlpha" type="matrix" values="0 0 0 0 0 0 0 0 0 0 0 0 0 0 0 0 0 0 127 0" result="hardAlpha"/>
<feOffset dx="2" dy="2"/>
<feGaussianBlur stdDeviation="4"/>
<feComposite in2="hardAlpha" operator="out"/>
<feColorMatrix type="matrix" values="0 0 0 0 0.235294 0 0 0 0 0.133333 0 0 0 0 0.113725 0 0 0 0.15 0"/>
<feBlend mode="normal" in2="BackgroundImageFix" result="effect1_dropShadow_243_18505"/>
<feBlend mode="normal" in="SourceGraphic" in2="effect1_dropShadow_243_18505" result="shape"/>
</filter>
<clipPath id="clip0_243_18505">
<rect width="24" height="24" fill="white" transform="translate(26.5 18)"/>
</clipPath>
</defs>
</svg>
